<?xml version="1.0" encoding="UTF-8"?>
<svg id="Calque_1"
  data-name="Calque 1"
  xmlns="http://www.w3.org/2000/svg"
  viewBox="0 0 734.41 580.18">
  <defs>
    <style>
      .cls-1 {
        fill: #ffce00;
      }

      .cls-2 {
        fill: none;
        stroke: #ffce00;
        stroke-linecap: round;
        stroke-linejoin: round;
        stroke-width: 5.03px;
      }
    </style>
  </defs>
  <path class="cls-1"
    d="m98.33,301.94c0,1.03-.4,2.18-1.2,3.44-1.03,1.26-2.35,1.89-3.95,1.89-.92,0-1.83-.28-2.75-.86-9.17-6.07-19.2-9.11-30.08-9.11-9.28,0-17.68,2.18-25.18,6.53-7.51,4.36-13.41,10.46-17.71,18.31-4.3,7.85-6.45,16.76-6.45,26.73s2.18,19.23,6.53,27.08c4.35,7.85,10.28,13.92,17.79,18.22,7.5,4.3,15.84,6.45,25.01,6.45,10.89,0,20.86-2.98,29.91-8.94.92-.57,1.89-.86,2.92-.86,1.6,0,2.92.69,3.95,2.06.8.92,1.2,2.01,1.2,3.27,0,1.84-.8,3.21-2.41,4.13-4.47,2.98-9.97,5.47-16.5,7.48-6.53,2-12.89,3.01-19.08,3.01-10.89,0-20.95-2.61-30.17-7.82-9.23-5.21-16.56-12.52-22-21.92-5.44-9.4-8.17-20.11-8.17-32.15s2.69-22.09,8.08-31.55c5.39-9.46,12.66-16.85,21.83-22.18,9.17-5.33,19.31-7.99,30.43-7.99,6.42,0,12.69.92,18.82,2.75,6.13,1.83,11.66,4.41,16.59,7.74,1.72,1.03,2.58,2.47,2.58,4.3Z" />
  <path class="cls-1"
    d="m127.52,409.16c-1.03,1.03-2.29,1.55-3.78,1.55-1.61,0-2.9-.49-3.87-1.46-.98-.97-1.46-2.26-1.46-3.87v-109.68c0-1.6.52-2.89,1.55-3.87,1.03-.97,2.35-1.46,3.95-1.46,1.49,0,2.75.52,3.78,1.55,1.03,1.03,1.55,2.29,1.55,3.78v109.68c-.12,1.49-.69,2.75-1.72,3.78Z" />
  <path class="cls-1"
    d="m475.66,199.58c-4.93-9.4-11.75-16.73-20.46-22-8.71-5.27-18.62-7.91-29.74-7.91s-21.03,2.64-29.74,7.91c-8.71,5.27-15.53,12.61-20.46,22-4.8,9.15-7.25,19.5-7.38,31.05,3.74.03,7.4.2,10.99.78.02-9.91,1.99-18.77,5.93-26.58,3.95-7.85,9.45-13.95,16.5-18.31,7.05-4.35,15.1-6.53,24.15-6.53s17.11,2.18,24.15,6.53c7.05,4.36,12.55,10.46,16.5,18.31,3.95,7.85,5.93,16.76,5.93,26.73s-1.98,18.88-5.93,26.73c-3.95,7.85-9.45,13.95-16.5,18.31-5.35,3.31-11.29,5.35-17.8,6.15.06,3.47.18,6.93.14,10.38,8.52-.85,16.27-3.4,23.24-7.67,8.71-5.33,15.53-12.69,20.46-22.09,4.93-9.4,7.39-20,7.39-31.8s-2.47-22.58-7.39-31.97Z" />
  <path class="cls-1"
    d="m563.07,380.64c-4.93,9.4-11.75,16.76-20.46,22.09-8.71,5.33-18.62,7.99-29.74,7.99s-21.03-2.67-29.74-7.99c-8.71-5.33-15.53-12.69-20.46-22.09-4.93-9.4-7.39-20-7.39-31.8s2.46-22.58,7.39-31.97c4.93-9.4,11.75-16.73,20.46-22,8.71-5.27,18.62-7.91,29.74-7.91s21.03,2.64,29.74,7.91c8.71,5.27,15.53,12.61,20.46,22,4.93,9.4,7.39,20.06,7.39,31.97s-2.47,22.41-7.39,31.8Zm-9.54-58.53c-3.95-7.85-9.45-13.95-16.5-18.31-7.05-4.35-15.1-6.53-24.15-6.53s-17.11,2.18-24.15,6.53c-7.05,4.36-12.55,10.46-16.5,18.31-3.95,7.85-5.93,16.76-5.93,26.73s1.98,18.88,5.93,26.73c3.95,7.85,9.45,13.95,16.5,18.31,7.05,4.36,15.1,6.53,24.15,6.53s17.11-2.18,24.15-6.53c7.05-4.35,12.55-10.46,16.5-18.31,3.95-7.85,5.93-16.76,5.93-26.73s-1.98-18.88-5.93-26.73Z" />
  <path class="cls-1"
    d="m667.3,298.53c7.5,5.44,13.12,12.72,16.85,21.83,3.72,9.11,5.59,19.17,5.59,30.17s-1.86,21.55-5.59,30.6c-3.73,9.06-9.34,16.25-16.85,21.58-7.51,5.33-16.76,7.99-27.76,7.99h-43.84c-1.49,0-2.72-.49-3.7-1.46-.98-.97-1.46-2.21-1.46-3.7v-110.02c0-1.49.49-2.72,1.46-3.7.97-.97,2.21-1.46,3.7-1.46h43.84c11,0,20.25,2.72,27.76,8.17Zm1.29,88.19c6.76-9.22,10.14-21.29,10.14-36.19,0-9.28-1.43-17.68-4.3-25.18-2.87-7.5-7.36-13.52-13.49-18.05-6.13-4.53-13.84-6.79-23.12-6.79h-36.44v100.05h36.44c13.75,0,24.01-4.61,30.77-13.84Z" />
  <path class="cls-2"
    d="m206.92,278.33c-4.28-49.64,14.03-68.63,30.64-78.93,24.69-15.32,61.02-1.45,74.62,23.74,5.25,9.73,6.95,20.42,5.51,30.61,5.34-6.49,12.04-12.04,19.96-16.19,30.09-15.75,67.83-5.25,85.37,23.84,18.85,31.24,8.23,71.31-22.68,89.36,13.42.07,26.25,9.63,28.42,25.64,1.39,10.28-3.49,20.41-12.06,26.24-1.79,1.22-3.41,2.12-5.13,2.85h-57.48" />
  <path class="cls-1"
    d="m334.18,402.11c.97,1.03,1.46,2.24,1.46,3.61,0,1.49-.49,2.69-1.46,3.61-.98.92-2.21,1.38-3.7,1.38h-63.09c-1.49,0-2.72-.49-3.7-1.46-.98-.97-1.46-2.21-1.46-3.7v-110.02c0-1.49.49-2.72,1.46-3.7s2.21-1.46,3.7-1.46h63.09c1.49,0,2.72.49,3.7,1.46.97.98,1.46,2.21,1.46,3.7s-.49,2.69-1.46,3.61c-.98.92-2.21,1.38-3.7,1.38h-57.42v43.15h49.68c1.49,0,2.72.49,3.7,1.46.97.97,1.46,2.21,1.46,3.7s-.49,2.69-1.46,3.61c-.98.92-2.21,1.38-3.7,1.38h-49.68v46.76h57.42c1.49,0,2.72.51,3.7,1.55Z" />
  <path class="cls-1"
    d="m240.86,291.74c.86.92,1.29,2.06,1.29,3.44v110.02c0,1.72-.52,3.07-1.55,4.04s-2.29,1.46-3.78,1.46c-.8,0-1.58-.17-2.32-.51-.75-.34-1.35-.74-1.81-1.2l-73.75-99.36v96.44c0,1.26-.49,2.35-1.46,3.27-.98.92-2.09,1.38-3.35,1.38-1.38,0-2.52-.46-3.44-1.38-.92-.92-1.38-2-1.38-3.27v-110.54c0-1.6.49-2.86,1.46-3.78.97-.92,2.15-1.38,3.52-1.38,1.83,0,3.21.63,4.13,1.89l74.09,99.88v-96.96c0-1.38.46-2.52,1.38-3.44.92-.92,2.06-1.38,3.44-1.38,1.49,0,2.66.46,3.52,1.38Z" />
  <g>
    <g id="_Répétition_radiale_"
      data-name="&amp;lt;Répétition radiale&amp;gt;">
      <line class="cls-2"
        x1="304.82"
        y1="169.01"
        x2="343.93"
        y2="184.9" />
    </g>
    <g id="_Répétition_radiale_-2"
      data-name="&amp;lt;Répétition radiale&amp;gt;">
      <line class="cls-2"
        x1="344.16"
        y1="117.7"
        x2="370.78"
        y2="150.47" />
    </g>
    <g id="_Répétition_radiale_-3"
      data-name="&amp;lt;Répétition radiale&amp;gt;">
      <line class="cls-2"
        x1="403.35"
        y1="91.7"
        x2="410.89"
        y2="133.24" />
    </g>
    <g id="_Répétition_radiale_-4"
      data-name="&amp;lt;Répétition radiale&amp;gt;">
      <line class="cls-2"
        x1="467.75"
        y1="97.43"
        x2="454.34"
        y2="137.46" />
    </g>
    <g id="_Répétition_radiale_-5"
      data-name="&amp;lt;Répétition radiale&amp;gt;">
      <line class="cls-2"
        x1="521.42"
        y1="133.47"
        x2="490.39"
        y2="162.09" />
    </g>
    <g id="_Répétition_radiale_-6"
      data-name="&amp;lt;Répétition radiale&amp;gt;">
      <line class="cls-2"
        x1="551.09"
        y1="190.91"
        x2="510.11"
        y2="201.05" />
    </g>
    <g id="_Répétition_radiale_-7"
      data-name="&amp;lt;Répétition radiale&amp;gt;">
      <line class="cls-2"
        x1="549.42"
        y1="255.54"
        x2="508.62"
        y2="244.68" />
    </g>
  </g>
</svg>